# Blender 4.1.1
# www.blender.org
mtllib 2ply2facesCommunes.mtl
o Cube.005
v -1.000000 -1.000000 1.000000
v -1.000000 1.000000 1.000000
v -1.000000 -1.000000 -1.000000
v -1.000000 1.000000 -1.000000
v 1.000000 -1.000000 1.000000
v 1.000000 1.000000 1.000000
v 1.000000 -1.000000 -1.000000
v 1.000000 1.000000 -1.000000
v 3.000000 -1.000000 1.000000
v 3.000000 1.000000 1.000000
v 3.000000 -1.000000 -1.000000
v 3.000000 1.000000 -1.000000
vn -1.0000 -0.0000 -0.0000
vn -0.0000 -0.0000 -1.0000
vn -0.0000 -0.0000 1.0000
vn -0.0000 -1.0000 -0.0000
vn -0.0000 1.0000 -0.0000
vn 1.0000 -0.0000 -0.0000
vt 0.375000 0.000000
vt 0.625000 0.000000
vt 0.625000 0.250000
vt 0.375000 0.250000
vt 0.625000 0.500000
vt 0.375000 0.500000
vt 0.375000 0.750000
vt 0.625000 0.750000
vt 0.625000 1.000000
vt 0.375000 1.000000
vt 0.125000 0.500000
vt 0.125000 0.750000
vt 0.875000 0.500000
vt 0.875000 0.750000
s 0
f 1/1/1 2/2/1 4/3/1 3/4/1
f 3/4/2 4/3/2 8/5/2 7/6/2
f 7/6/2 8/5/2 12/5/2 11/6/2
f 5/7/3 6/8/3 2/9/3 1/10/3
f 3/11/4 7/6/4 5/7/4 1/12/4
f 8/5/5 4/13/5 2/14/5 6/8/5
f 11/6/6 12/5/6 10/8/6 9/7/6
f 6/8/3 5/7/3 9/7/3 10/8/3
f 5/7/4 7/6/4 11/6/4 9/7/4
f 8/5/5 6/8/5 10/8/5 12/5/5
o Cube.006
v -1.000000 1.000000 1.000000
v -1.000000 3.000000 1.000000
v -1.000000 1.000000 -1.000000
v -1.000000 3.000000 -1.000000
v 1.000000 1.000000 1.000000
v 1.000000 3.000000 1.000000
v 1.000000 1.000000 -1.000000
v 1.000000 3.000000 -1.000000
v 3.000000 1.000000 1.000000
v 3.000000 3.000000 1.000000
v 3.000000 1.000000 -1.000000
v 3.000000 3.000000 -1.000000
vn -1.0000 -0.0000 -0.0000
vn -0.0000 -0.0000 -1.0000
vn -0.0000 -0.0000 1.0000
vn -0.0000 -1.0000 -0.0000
vn -0.0000 1.0000 -0.0000
vn 1.0000 -0.0000 -0.0000
vt 0.375000 0.000000
vt 0.625000 0.000000
vt 0.625000 0.250000
vt 0.375000 0.250000
vt 0.625000 0.500000
vt 0.375000 0.500000
vt 0.375000 0.750000
vt 0.625000 0.750000
vt 0.625000 1.000000
vt 0.375000 1.000000
vt 0.125000 0.500000
vt 0.125000 0.750000
vt 0.875000 0.500000
vt 0.875000 0.750000
s 0
f 13/15/7 14/16/7 16/17/7 15/18/7
f 15/18/8 16/17/8 20/19/8 19/20/8
f 19/20/8 20/19/8 24/19/8 23/20/8
f 17/21/9 18/22/9 14/23/9 13/24/9
f 15/25/10 19/20/10 17/21/10 13/26/10
f 20/19/11 16/27/11 14/28/11 18/22/11
f 23/20/12 24/19/12 22/22/12 21/21/12
f 18/22/9 17/21/9 21/21/9 22/22/9
f 17/21/10 19/20/10 23/20/10 21/21/10
f 20/19/11 18/22/11 22/22/11 24/19/11
